# xmcd
#
# Track frame offsets:
#   150
#   18873
#   37146
#   52238
#   65806
#   83903
#   105850
#   125555
#   143617
#   161310
#   180298
#   198382
#
# Disc length: 2969 seconds
#
# Revision: 0
# Processed by: cddbd v1.5.1PL0 Copyright (c) Steve Scherf et al.
# Submitted via: Media_Universe 3.0
#
DISCID=9c0b970c
DTITLE=MONTGOMERY GENTRY - My Town
DYEAR=2004
DGENRE=Country
TTITLE0=My Town
TTITLE1=Break My Heart Again
TTITLE2=Scarecrow
TTITLE3=Bad For Good
TTITLE4=Speed
TTITLE5=Hell Yeah
TTITLE6=Lonesome
TTITLE7=Why Do I Feel Like Running
TTITLE8=Free Fall
TTITLE9=Lie Before You Leave
TTITLE10=For The Money
TTITLE11=Good Clean Fun
EXTD=
EXTT0=
EXTT1=
EXTT2=
EXTT3=
EXTT4=
EXTT5=
EXTT6=
EXTT7=
EXTT8=
EXTT9=
EXTT10=
EXTT11=
PLAYORDER=
